<svg xmlns="http://www.w3.org/2000/svg" xmlns:xlink="http://www.w3.org/1999/xlink" width="500" zoomAndPan="magnify" viewBox="0 0 375 374.999991" height="500" preserveAspectRatio="xMidYMid meet" version="1.0"><defs><g/><clipPath id="317dd0a6a3"><path d="M 4.253906 0 L 371 0 L 371 375 L 4.253906 375 Z M 4.253906 0 " clip-rule="nonzero"/></clipPath></defs><g fill="#000000" fill-opacity="1"><g transform="translate(37.500002, 202.399981)"><g><path d="M 5.828125 -1.375 L 6.234375 -0.453125 C 6.035156 -0.253906 5.769531 -0.101562 5.4375 0 C 5.101562 0.113281 4.742188 0.171875 4.359375 0.171875 C 2.710938 0.171875 1.890625 -0.664062 1.890625 -2.34375 L 1.890625 -7.578125 L 0.390625 -7.578125 L 0.390625 -8.625 L 1.890625 -8.625 L 1.890625 -10.453125 L 3.171875 -10.65625 L 3.171875 -8.625 L 5.9375 -8.625 L 5.9375 -7.578125 L 3.171875 -7.578125 L 3.171875 -2.46875 C 3.171875 -1.476562 3.597656 -0.984375 4.453125 -0.984375 C 4.921875 -0.984375 5.328125 -1.113281 5.671875 -1.375 Z M 5.828125 -1.375 "/></g></g></g><g clip-path="url(#317dd0a6a3)"><path fill="#7d5a50" d="M 346.507812 245.921875 C 348.914062 234.992188 350.203125 223.929688 350.375 212.738281 C 350.371094 208.710938 350.21875 204.691406 349.917969 200.679688 C 349.617188 196.664062 349.167969 192.667969 348.570312 188.6875 C 347.972656 184.707031 347.230469 180.753906 346.339844 176.828125 C 345.449219 172.902344 344.414062 169.015625 343.234375 165.167969 C 342.058594 161.320312 340.738281 157.519531 339.277344 153.769531 C 337.816406 150.015625 336.21875 146.324219 334.484375 142.691406 C 332.75 139.0625 330.886719 135.496094 328.886719 132.003906 C 326.890625 128.507812 324.765625 125.09375 322.511719 121.757812 C 320.261719 118.421875 317.890625 115.171875 315.398438 112.011719 C 312.90625 108.851562 310.300781 105.785156 307.578125 102.820312 C 304.859375 99.851562 302.035156 96.988281 299.101562 94.230469 C 296.171875 91.472656 293.140625 88.828125 290.015625 86.292969 C 286.886719 83.761719 283.667969 81.347656 280.363281 79.050781 C 277.054688 76.757812 273.667969 74.585938 270.203125 72.542969 C 266.734375 70.5 263.195312 68.585938 259.585938 66.804688 C 255.976562 65.023438 252.304688 63.378906 248.574219 61.867188 C 248.574219 59.867188 248.476562 57.871094 248.28125 55.882812 C 248.085938 53.890625 247.792969 51.914062 247.402344 49.953125 C 247.011719 47.992188 246.527344 46.050781 245.945312 44.136719 C 245.363281 42.222656 244.691406 40.34375 243.925781 38.496094 C 243.160156 36.644531 242.304688 34.839844 241.363281 33.074219 C 240.417969 31.3125 239.390625 29.597656 238.28125 27.933594 C 237.167969 26.269531 235.980469 24.667969 234.710938 23.121094 C 233.441406 21.574219 232.097656 20.09375 230.683594 18.679688 C 229.269531 17.265625 227.789062 15.921875 226.242188 14.652344 C 224.695312 13.382812 223.09375 12.195312 221.429688 11.082031 C 219.765625 9.972656 218.050781 8.945312 216.289062 8 C 214.523438 7.058594 212.71875 6.203125 210.867188 5.4375 C 209.019531 4.671875 207.140625 4 205.226562 3.417969 C 203.3125 2.839844 201.371094 2.351562 199.410156 1.960938 C 197.449219 1.570312 195.472656 1.277344 193.480469 1.082031 C 191.492188 0.886719 189.496094 0.789062 187.496094 0.789062 C 185.496094 0.789062 183.5 0.886719 181.507812 1.082031 C 179.515625 1.277344 177.539062 1.570312 175.578125 1.960938 C 173.617188 2.351562 171.679688 2.839844 169.765625 3.417969 C 167.851562 4 165.96875 4.671875 164.121094 5.4375 C 162.273438 6.203125 160.464844 7.058594 158.703125 8 C 156.9375 8.945312 155.222656 9.972656 153.558594 11.082031 C 151.898438 12.195312 150.292969 13.382812 148.746094 14.652344 C 147.199219 15.921875 145.71875 17.265625 144.304688 18.679688 C 142.890625 20.09375 141.546875 21.574219 140.277344 23.121094 C 139.011719 24.667969 137.820312 26.269531 136.707031 27.933594 C 135.597656 29.597656 134.570312 31.3125 133.628906 33.074219 C 132.683594 34.839844 131.828125 36.644531 131.0625 38.496094 C 130.296875 40.34375 129.625 42.222656 129.042969 44.136719 C 128.464844 46.050781 127.980469 47.992188 127.589844 49.953125 C 127.199219 51.914062 126.90625 53.890625 126.707031 55.882812 C 126.511719 57.871094 126.414062 59.867188 126.414062 61.867188 C 122.683594 63.378906 119.011719 65.023438 115.402344 66.804688 C 111.792969 68.585938 108.257812 70.5 104.789062 72.542969 C 101.320312 74.585938 97.933594 76.757812 94.625 79.050781 C 91.320312 81.347656 88.101562 83.761719 84.976562 86.292969 C 81.847656 88.828125 78.816406 91.472656 75.886719 94.230469 C 72.953125 96.988281 70.128906 99.851562 67.410156 102.820312 C 64.691406 105.785156 62.085938 108.851562 59.59375 112.011719 C 57.101562 115.171875 54.726562 118.421875 52.476562 121.757812 C 50.226562 125.09375 48.101562 128.507812 46.101562 132.003906 C 44.105469 135.496094 42.238281 139.0625 40.503906 142.691406 C 38.769531 146.324219 37.171875 150.015625 35.710938 153.769531 C 34.253906 157.519531 32.933594 161.320312 31.753906 165.167969 C 30.574219 169.015625 29.542969 172.902344 28.652344 176.828125 C 27.761719 180.753906 27.015625 184.707031 26.417969 188.6875 C 25.820312 192.667969 25.371094 196.664062 25.070312 200.679688 C 24.769531 204.691406 24.617188 208.710938 24.613281 212.738281 C 24.683594 223.941406 25.972656 235.003906 28.484375 245.921875 C 26.621094 247.332031 24.847656 248.839844 23.160156 250.449219 C 21.472656 252.0625 19.882812 253.761719 18.390625 255.554688 C 16.898438 257.347656 15.511719 259.222656 14.234375 261.171875 C 12.957031 263.125 11.792969 265.144531 10.746094 267.226562 C 9.699219 269.3125 8.777344 271.449219 7.972656 273.640625 C 7.171875 275.832031 6.5 278.0625 5.953125 280.328125 C 5.40625 282.597656 4.992188 284.886719 4.707031 287.203125 C 4.421875 289.519531 4.273438 291.84375 4.253906 294.175781 C 4.253906 296.175781 4.351562 298.171875 4.546875 300.164062 C 4.746094 302.15625 5.039062 304.128906 5.429688 306.09375 C 5.820312 308.054688 6.304688 309.992188 6.882812 311.90625 C 7.464844 313.820312 8.136719 315.703125 8.902344 317.550781 C 9.667969 319.398438 10.523438 321.207031 11.46875 322.96875 C 12.410156 324.734375 13.4375 326.449219 14.546875 328.109375 C 15.660156 329.773438 16.851562 331.378906 18.117188 332.925781 C 19.386719 334.472656 20.730469 335.953125 22.144531 337.367188 C 23.558594 338.78125 25.039062 340.125 26.585938 341.390625 C 28.132812 342.660156 29.738281 343.851562 31.402344 344.960938 C 33.0625 346.074219 34.777344 347.101562 36.542969 348.042969 C 38.304688 348.988281 40.113281 349.839844 41.960938 350.605469 C 43.808594 351.371094 45.691406 352.046875 47.605469 352.625 C 49.519531 353.207031 51.457031 353.691406 53.417969 354.082031 C 55.378906 354.472656 57.355469 354.765625 59.347656 354.960938 C 61.339844 355.160156 63.335938 355.257812 65.335938 355.257812 C 70.597656 355.253906 75.765625 354.558594 80.839844 353.179688 C 85.917969 351.796875 90.726562 349.773438 95.265625 347.113281 C 98.632812 349.425781 102.082031 351.613281 105.617188 353.667969 C 109.148438 355.71875 112.753906 357.640625 116.433594 359.421875 C 120.109375 361.207031 123.851562 362.847656 127.652344 364.351562 C 131.453125 365.851562 135.304688 367.207031 139.207031 368.417969 C 143.113281 369.632812 147.054688 370.695312 151.039062 371.609375 C 155.023438 372.523438 159.035156 373.289062 163.074219 373.902344 C 167.117188 374.511719 171.175781 374.972656 175.25 375.28125 C 179.328125 375.589844 183.40625 375.742188 187.496094 375.742188 C 191.582031 375.742188 195.664062 375.589844 199.738281 375.28125 C 203.816406 374.972656 207.871094 374.511719 211.914062 373.902344 C 215.953125 373.289062 219.96875 372.523438 223.949219 371.609375 C 227.933594 370.695312 231.878906 369.632812 235.78125 368.417969 C 239.683594 367.207031 243.535156 365.851562 247.339844 364.351562 C 251.140625 362.847656 254.878906 361.207031 258.554688 359.421875 C 262.234375 357.640625 265.839844 355.71875 269.371094 353.667969 C 272.90625 351.613281 276.355469 349.425781 279.726562 347.113281 C 284.265625 349.773438 289.070312 351.796875 294.148438 353.179688 C 299.226562 354.558594 304.394531 355.253906 309.65625 355.257812 C 311.65625 355.257812 313.652344 355.160156 315.640625 354.960938 C 317.632812 354.765625 319.609375 354.472656 321.570312 354.082031 C 323.53125 353.691406 325.472656 353.207031 327.386719 352.625 C 329.300781 352.046875 331.179688 351.371094 333.027344 350.605469 C 334.878906 349.839844 336.683594 348.988281 338.449219 348.042969 C 340.210938 347.101562 341.925781 346.074219 343.589844 344.960938 C 345.253906 343.851562 346.855469 342.660156 348.402344 341.390625 C 349.949219 340.125 351.429688 338.78125 352.84375 337.367188 C 354.257812 335.953125 355.601562 334.472656 356.871094 332.925781 C 358.140625 331.378906 359.328125 329.773438 360.441406 328.109375 C 361.550781 326.449219 362.578125 324.734375 363.523438 322.96875 C 364.464844 321.207031 365.320312 319.398438 366.085938 317.550781 C 366.851562 315.703125 367.523438 313.820312 368.105469 311.90625 C 368.6875 309.992188 369.171875 308.054688 369.5625 306.09375 C 369.953125 304.128906 370.246094 302.15625 370.441406 300.164062 C 370.636719 298.171875 370.734375 296.175781 370.734375 294.175781 C 370.71875 291.84375 370.566406 289.519531 370.28125 287.203125 C 370 284.886719 369.585938 282.597656 369.039062 280.328125 C 368.492188 278.0625 367.816406 275.832031 367.015625 273.640625 C 366.214844 271.449219 365.289062 269.3125 364.242188 267.226562 C 363.195312 265.144531 362.03125 263.125 360.753906 261.171875 C 359.476562 259.222656 358.089844 257.347656 356.597656 255.554688 C 355.105469 253.761719 353.515625 252.0625 351.828125 250.449219 C 350.140625 248.839844 348.367188 247.332031 346.507812 245.921875 Z M 187.496094 49.855469 C 188.160156 49.855469 188.828125 49.890625 189.492188 49.953125 C 190.152344 50.019531 190.8125 50.117188 191.46875 50.246094 C 192.121094 50.378906 192.765625 50.539062 193.40625 50.734375 C 194.042969 50.925781 194.671875 51.152344 195.285156 51.40625 C 195.902344 51.660156 196.503906 51.945312 197.09375 52.261719 C 197.679688 52.574219 198.25 52.917969 198.804688 53.289062 C 199.359375 53.65625 199.894531 54.054688 200.410156 54.476562 C 200.925781 54.902344 201.421875 55.347656 201.890625 55.820312 C 202.363281 56.292969 202.808594 56.785156 203.234375 57.300781 C 203.65625 57.816406 204.054688 58.351562 204.421875 58.90625 C 204.792969 59.460938 205.136719 60.03125 205.449219 60.617188 C 205.765625 61.207031 206.050781 61.808594 206.304688 62.425781 C 206.558594 63.039062 206.785156 63.667969 206.976562 64.304688 C 207.171875 64.945312 207.332031 65.589844 207.464844 66.246094 C 207.59375 66.898438 207.691406 67.558594 207.757812 68.222656 C 207.820312 68.882812 207.855469 69.550781 207.855469 70.214844 C 207.855469 70.882812 207.820312 71.546875 207.757812 72.210938 C 207.691406 72.875 207.59375 73.535156 207.464844 74.1875 C 207.332031 74.84375 207.171875 75.488281 206.976562 76.125 C 206.785156 76.765625 206.558594 77.390625 206.304688 78.007812 C 206.050781 78.625 205.765625 79.226562 205.449219 79.8125 C 205.136719 80.402344 204.792969 80.972656 204.421875 81.527344 C 204.054688 82.082031 203.65625 82.617188 203.234375 83.132812 C 202.808594 83.648438 202.363281 84.140625 201.890625 84.613281 C 201.421875 85.085938 200.925781 85.53125 200.410156 85.953125 C 199.894531 86.378906 199.359375 86.773438 198.804688 87.144531 C 198.25 87.515625 197.679688 87.859375 197.09375 88.171875 C 196.503906 88.488281 195.902344 88.769531 195.285156 89.027344 C 194.671875 89.28125 194.042969 89.507812 193.40625 89.699219 C 192.765625 89.894531 192.121094 90.054688 191.46875 90.183594 C 190.8125 90.316406 190.152344 90.414062 189.492188 90.476562 C 188.828125 90.542969 188.160156 90.578125 187.496094 90.578125 C 186.828125 90.578125 186.164062 90.542969 185.5 90.476562 C 184.835938 90.414062 184.175781 90.316406 183.523438 90.183594 C 182.867188 90.054688 182.222656 89.894531 181.585938 89.699219 C 180.945312 89.507812 180.320312 89.28125 179.703125 89.027344 C 179.085938 88.769531 178.484375 88.488281 177.898438 88.171875 C 177.308594 87.859375 176.738281 87.515625 176.183594 87.144531 C 175.628906 86.773438 175.09375 86.378906 174.578125 85.953125 C 174.0625 85.53125 173.570312 85.085938 173.097656 84.613281 C 172.625 84.140625 172.179688 83.648438 171.757812 83.132812 C 171.332031 82.617188 170.9375 82.082031 170.566406 81.527344 C 170.195312 80.972656 169.851562 80.402344 169.539062 79.8125 C 169.222656 79.226562 168.941406 78.625 168.683594 78.007812 C 168.429688 77.390625 168.203125 76.765625 168.011719 76.125 C 167.816406 75.488281 167.65625 74.84375 167.527344 74.1875 C 167.394531 73.535156 167.296875 72.875 167.234375 72.210938 C 167.167969 71.546875 167.136719 70.882812 167.136719 70.214844 C 167.136719 69.550781 167.167969 68.882812 167.234375 68.222656 C 167.296875 67.558594 167.394531 66.898438 167.527344 66.246094 C 167.65625 65.589844 167.816406 64.945312 168.011719 64.304688 C 168.203125 63.667969 168.429688 63.039062 168.683594 62.425781 C 168.941406 61.808594 169.222656 61.207031 169.539062 60.617188 C 169.851562 60.03125 170.195312 59.460938 170.566406 58.90625 C 170.9375 58.351562 171.332031 57.816406 171.757812 57.300781 C 172.179688 56.785156 172.625 56.292969 173.097656 55.820312 C 173.570312 55.347656 174.0625 54.902344 174.578125 54.476562 C 175.09375 54.054688 175.628906 53.65625 176.183594 53.289062 C 176.738281 52.917969 177.308594 52.574219 177.898438 52.261719 C 178.484375 51.945312 179.085938 51.660156 179.703125 51.40625 C 180.320312 51.152344 180.945312 50.925781 181.585938 50.734375 C 182.222656 50.539062 182.867188 50.378906 183.523438 50.246094 C 184.175781 50.117188 184.835938 50.019531 185.5 49.953125 C 186.164062 49.890625 186.828125 49.855469 187.496094 49.855469 Z M 65.335938 314.535156 C 64.667969 314.535156 64.003906 314.503906 63.339844 314.4375 C 62.675781 314.375 62.015625 314.277344 61.363281 314.144531 C 60.707031 314.015625 60.0625 313.851562 59.425781 313.660156 C 58.785156 313.464844 58.160156 313.242188 57.542969 312.988281 C 56.925781 312.730469 56.324219 312.445312 55.738281 312.132812 C 55.148438 311.816406 54.578125 311.476562 54.023438 311.105469 C 53.46875 310.734375 52.933594 310.339844 52.417969 309.914062 C 51.902344 309.492188 51.410156 309.042969 50.9375 308.574219 C 50.464844 308.101562 50.019531 307.609375 49.597656 307.09375 C 49.171875 306.578125 48.777344 306.042969 48.40625 305.488281 C 48.035156 304.933594 47.691406 304.363281 47.378906 303.773438 C 47.0625 303.1875 46.78125 302.585938 46.523438 301.96875 C 46.269531 301.351562 46.042969 300.726562 45.851562 300.085938 C 45.65625 299.449219 45.496094 298.800781 45.367188 298.148438 C 45.234375 297.496094 45.136719 296.835938 45.074219 296.171875 C 45.007812 295.507812 44.976562 294.84375 44.976562 294.175781 C 44.976562 293.511719 45.007812 292.84375 45.074219 292.179688 C 45.136719 291.515625 45.234375 290.859375 45.367188 290.203125 C 45.496094 289.550781 45.65625 288.90625 45.851562 288.265625 C 46.042969 287.628906 46.269531 287 46.523438 286.386719 C 46.78125 285.769531 47.0625 285.167969 47.378906 284.578125 C 47.691406 283.992188 48.035156 283.417969 48.40625 282.863281 C 48.777344 282.3125 49.171875 281.777344 49.597656 281.261719 C 50.019531 280.746094 50.464844 280.25 50.9375 279.78125 C 51.410156 279.308594 51.902344 278.859375 52.417969 278.4375 C 52.933594 278.015625 53.46875 277.617188 54.023438 277.246094 C 54.578125 276.878906 55.148438 276.535156 55.738281 276.21875 C 56.324219 275.90625 56.925781 275.621094 57.542969 275.367188 C 58.160156 275.109375 58.785156 274.886719 59.425781 274.691406 C 60.0625 274.5 60.707031 274.339844 61.363281 274.207031 C 62.015625 274.078125 62.675781 273.980469 63.339844 273.914062 C 64.003906 273.847656 64.667969 273.816406 65.335938 273.816406 C 66 273.816406 66.667969 273.847656 67.332031 273.914062 C 67.992188 273.980469 68.652344 274.078125 69.308594 274.207031 C 69.960938 274.339844 70.605469 274.5 71.246094 274.691406 C 71.882812 274.886719 72.511719 275.109375 73.125 275.367188 C 73.742188 275.621094 74.34375 275.90625 74.933594 276.21875 C 75.519531 276.535156 76.089844 276.878906 76.644531 277.246094 C 77.199219 277.617188 77.734375 278.015625 78.25 278.4375 C 78.765625 278.859375 79.261719 279.308594 79.730469 279.78125 C 80.203125 280.25 80.648438 280.746094 81.074219 281.261719 C 81.496094 281.777344 81.894531 282.3125 82.261719 282.863281 C 82.632812 283.417969 82.976562 283.992188 83.289062 284.578125 C 83.605469 285.167969 83.890625 285.769531 84.144531 286.386719 C 84.398438 287 84.625 287.628906 84.816406 288.265625 C 85.011719 288.90625 85.171875 289.550781 85.304688 290.203125 C 85.433594 290.859375 85.53125 291.515625 85.597656 292.179688 C 85.660156 292.84375 85.695312 293.511719 85.695312 294.175781 C 85.695312 294.84375 85.660156 295.507812 85.597656 296.171875 C 85.53125 296.835938 85.433594 297.496094 85.304688 298.148438 C 85.171875 298.800781 85.011719 299.449219 84.816406 300.085938 C 84.625 300.726562 84.398438 301.351562 84.144531 301.96875 C 83.890625 302.585938 83.605469 303.1875 83.289062 303.773438 C 82.976562 304.363281 82.632812 304.933594 82.261719 305.488281 C 81.894531 306.042969 81.496094 306.578125 81.074219 307.09375 C 80.648438 307.609375 80.203125 308.101562 79.730469 308.574219 C 79.261719 309.042969 78.765625 309.492188 78.25 309.914062 C 77.734375 310.339844 77.199219 310.734375 76.644531 311.105469 C 76.089844 311.476562 75.519531 311.816406 74.933594 312.132812 C 74.34375 312.445312 73.742188 312.730469 73.125 312.988281 C 72.511719 313.242188 71.882812 313.464844 71.246094 313.660156 C 70.605469 313.855469 69.960938 314.015625 69.308594 314.144531 C 68.652344 314.277344 67.992188 314.375 67.332031 314.4375 C 66.667969 314.503906 66 314.535156 65.335938 314.535156 Z M 122.34375 315.554688 C 124.964844 308.667969 126.320312 301.542969 126.414062 294.175781 C 126.414062 292.214844 126.320312 290.253906 126.132812 288.300781 C 125.945312 286.347656 125.664062 284.40625 125.289062 282.480469 C 124.914062 280.554688 124.449219 278.652344 123.890625 276.769531 C 123.332031 274.886719 122.683594 273.035156 121.945312 271.21875 C 121.210938 269.398438 120.386719 267.621094 119.480469 265.878906 C 118.570312 264.140625 117.582031 262.449219 116.507812 260.804688 C 115.4375 259.160156 114.289062 257.570312 113.0625 256.035156 C 111.839844 254.5 110.542969 253.03125 109.175781 251.621094 C 107.8125 250.210938 106.378906 248.871094 104.882812 247.601562 C 103.386719 246.332031 101.835938 245.136719 100.222656 244.015625 C 98.613281 242.894531 96.953125 241.851562 95.238281 240.890625 C 93.527344 239.929688 91.773438 239.054688 89.980469 238.261719 C 88.183594 237.46875 86.351562 236.765625 84.488281 236.148438 C 82.625 235.535156 80.738281 235.011719 78.824219 234.578125 C 76.910156 234.144531 74.976562 233.804688 73.03125 233.554688 C 71.082031 233.308594 69.128906 233.15625 67.167969 233.097656 C 66.050781 226.355469 65.441406 219.570312 65.335938 212.738281 C 65.335938 209.851562 65.441406 206.972656 65.648438 204.097656 C 65.855469 201.21875 66.164062 198.355469 66.574219 195.5 C 66.984375 192.644531 67.492188 189.808594 68.105469 186.988281 C 68.714844 184.171875 69.425781 181.378906 70.234375 178.609375 C 71.042969 175.839844 71.945312 173.105469 72.949219 170.398438 C 73.953125 167.695312 75.046875 165.03125 76.238281 162.40625 C 77.429688 159.777344 78.710938 157.195312 80.085938 154.660156 C 81.460938 152.125 82.921875 149.640625 84.472656 147.210938 C 86.023438 144.777344 87.65625 142.402344 89.375 140.085938 C 91.089844 137.769531 92.890625 135.515625 94.765625 133.328125 C 96.644531 131.140625 98.597656 129.019531 100.625 126.96875 C 102.652344 124.917969 104.75 122.941406 106.917969 121.039062 C 109.085938 119.136719 111.316406 117.3125 113.613281 115.570312 C 115.910156 113.824219 118.265625 112.164062 120.679688 110.585938 C 123.09375 109.007812 125.5625 107.519531 128.082031 106.117188 C 130.601562 104.714844 133.167969 103.402344 135.78125 102.179688 C 136.464844 103.269531 137.183594 104.335938 137.933594 105.378906 C 138.683594 106.421875 139.46875 107.4375 140.28125 108.433594 C 141.097656 109.425781 141.945312 110.394531 142.820312 111.332031 C 143.699219 112.273438 144.601562 113.183594 145.535156 114.066406 C 146.46875 114.949219 147.429688 115.804688 148.417969 116.625 C 149.40625 117.445312 150.421875 118.238281 151.457031 118.996094 C 152.496094 119.753906 153.554688 120.480469 154.640625 121.171875 C 155.722656 121.863281 156.828125 122.519531 157.953125 123.140625 C 159.078125 123.761719 160.21875 124.347656 161.382812 124.894531 C 162.542969 125.445312 163.722656 125.957031 164.917969 126.433594 C 166.109375 126.910156 167.320312 127.34375 168.539062 127.746094 C 169.761719 128.144531 170.996094 128.503906 172.238281 128.824219 C 173.484375 129.144531 174.738281 129.425781 176 129.667969 C 177.261719 129.910156 178.53125 130.113281 179.804688 130.273438 C 181.082031 130.433594 182.359375 130.558594 183.644531 130.636719 C 184.925781 130.71875 186.210938 130.757812 187.496094 130.757812 C 188.78125 130.757812 190.0625 130.71875 191.347656 130.636719 C 192.628906 130.558594 193.910156 130.433594 195.183594 130.273438 C 196.457031 130.113281 197.726562 129.910156 198.988281 129.667969 C 200.25 129.425781 201.503906 129.144531 202.75 128.824219 C 203.992188 128.503906 205.226562 128.144531 206.449219 127.746094 C 207.671875 127.34375 208.878906 126.910156 210.074219 126.433594 C 211.265625 125.957031 212.445312 125.445312 213.605469 124.894531 C 214.769531 124.347656 215.914062 123.761719 217.039062 123.140625 C 218.164062 122.519531 219.265625 121.863281 220.351562 121.171875 C 221.433594 120.480469 222.496094 119.753906 223.53125 118.996094 C 224.570312 118.238281 225.582031 117.445312 226.570312 116.625 C 227.558594 115.804688 228.519531 114.949219 229.453125 114.066406 C 230.386719 113.183594 231.292969 112.273438 232.167969 111.332031 C 233.046875 110.394531 233.890625 109.425781 234.707031 108.433594 C 235.523438 107.4375 236.304688 106.421875 237.058594 105.378906 C 237.808594 104.335938 238.523438 103.269531 239.210938 102.179688 C 241.820312 103.402344 244.386719 104.714844 246.910156 106.117188 C 249.429688 107.519531 251.894531 109.007812 254.308594 110.585938 C 256.722656 112.164062 259.078125 113.824219 261.375 115.570312 C 263.671875 117.3125 265.90625 119.136719 268.074219 121.039062 C 270.238281 122.941406 272.335938 124.917969 274.367188 126.96875 C 276.394531 129.019531 278.34375 131.140625 280.222656 133.328125 C 282.101562 135.515625 283.898438 137.769531 285.617188 140.085938 C 287.335938 142.402344 288.96875 144.777344 290.519531 147.210938 C 292.066406 149.640625 293.527344 152.125 294.902344 154.660156 C 296.277344 157.195312 297.558594 159.777344 298.75 162.40625 C 299.941406 165.03125 301.039062 167.695312 302.039062 170.398438 C 303.042969 173.105469 303.949219 175.839844 304.757812 178.609375 C 305.566406 181.378906 306.273438 184.171875 306.886719 186.988281 C 307.496094 189.808594 308.007812 192.644531 308.414062 195.5 C 308.824219 198.355469 309.132812 201.21875 309.339844 204.097656 C 309.546875 206.972656 309.652344 209.851562 309.65625 212.738281 C 309.546875 219.570312 308.9375 226.355469 307.824219 233.097656 C 305.859375 233.15625 303.90625 233.308594 301.960938 233.554688 C 300.011719 233.804688 298.082031 234.144531 296.167969 234.578125 C 294.253906 235.011719 292.363281 235.535156 290.5 236.148438 C 288.636719 236.765625 286.804688 237.46875 285.011719 238.261719 C 283.214844 239.054688 281.460938 239.929688 279.75 240.890625 C 278.039062 241.851562 276.375 242.894531 274.765625 244.015625 C 273.15625 245.136719 271.601562 246.332031 270.105469 247.601562 C 268.609375 248.871094 267.179688 250.210938 265.8125 251.621094 C 264.445312 253.03125 263.148438 254.5 261.925781 256.035156 C 260.699219 257.570312 259.550781 259.160156 258.480469 260.804688 C 257.410156 262.449219 256.417969 264.140625 255.511719 265.878906 C 254.601562 267.621094 253.78125 269.398438 253.042969 271.21875 C 252.304688 273.035156 251.660156 274.886719 251.101562 276.769531 C 250.542969 278.652344 250.074219 280.554688 249.699219 282.480469 C 249.324219 284.40625 249.042969 286.347656 248.855469 288.300781 C 248.667969 290.253906 248.574219 292.214844 248.574219 294.175781 C 248.667969 301.542969 250.027344 308.667969 252.648438 315.554688 C 250.203125 317.023438 247.710938 318.410156 245.171875 319.710938 C 242.632812 321.011719 240.050781 322.226562 237.429688 323.355469 C 234.808594 324.480469 232.152344 325.519531 229.460938 326.464844 C 226.769531 327.414062 224.050781 328.265625 221.300781 329.03125 C 218.550781 329.792969 215.78125 330.460938 212.988281 331.039062 C 210.191406 331.613281 207.382812 332.09375 204.554688 332.476562 C 201.726562 332.863281 198.890625 333.152344 196.042969 333.34375 C 193.199219 333.535156 190.347656 333.632812 187.496094 333.632812 C 184.640625 333.632812 181.792969 333.535156 178.945312 333.34375 C 176.097656 333.152344 173.261719 332.863281 170.433594 332.476562 C 167.609375 332.09375 164.796875 331.613281 162.003906 331.039062 C 159.207031 330.460938 156.4375 329.792969 153.6875 329.03125 C 150.9375 328.265625 148.21875 327.414062 145.527344 326.464844 C 142.835938 325.519531 140.179688 324.480469 137.558594 323.355469 C 134.9375 322.226562 132.359375 321.011719 129.820312 319.710938 C 127.28125 318.410156 124.789062 317.023438 122.34375 315.554688 Z M 309.65625 314.535156 C 308.988281 314.535156 308.324219 314.503906 307.660156 314.4375 C 306.996094 314.375 306.335938 314.277344 305.683594 314.144531 C 305.027344 314.015625 304.382812 313.851562 303.746094 313.660156 C 303.105469 313.464844 302.480469 313.242188 301.863281 312.988281 C 301.246094 312.730469 300.644531 312.445312 300.058594 312.132812 C 299.46875 311.816406 298.898438 311.476562 298.34375 311.105469 C 297.789062 310.734375 297.253906 310.339844 296.738281 309.914062 C 296.222656 309.492188 295.730469 309.042969 295.257812 308.574219 C 294.785156 308.101562 294.339844 307.609375 293.917969 307.09375 C 293.492188 306.578125 293.097656 306.042969 292.726562 305.488281 C 292.355469 304.933594 292.011719 304.363281 291.699219 303.773438 C 291.382812 303.1875 291.101562 302.585938 290.84375 301.96875 C 290.589844 301.351562 290.363281 300.726562 290.171875 300.085938 C 289.976562 299.449219 289.816406 298.800781 289.6875 298.148438 C 289.554688 297.496094 289.457031 296.835938 289.394531 296.171875 C 289.328125 295.507812 289.296875 294.84375 289.296875 294.175781 C 289.296875 293.511719 289.328125 292.84375 289.394531 292.179688 C 289.457031 291.515625 289.554688 290.859375 289.6875 290.203125 C 289.816406 289.550781 289.976562 288.90625 290.171875 288.265625 C 290.363281 287.628906 290.589844 287 290.84375 286.386719 C 291.101562 285.769531 291.382812 285.167969 291.699219 284.578125 C 292.011719 283.992188 292.355469 283.417969 292.726562 282.863281 C 293.097656 282.3125 293.492188 281.777344 293.917969 281.261719 C 294.339844 280.746094 294.785156 280.25 295.257812 279.78125 C 295.730469 279.308594 296.222656 278.859375 296.738281 278.4375 C 297.253906 278.015625 297.789062 277.617188 298.34375 277.246094 C 298.898438 276.878906 299.46875 276.535156 300.058594 276.21875 C 300.644531 275.90625 301.246094 275.621094 301.863281 275.367188 C 302.480469 275.109375 303.105469 274.886719 303.746094 274.691406 C 304.382812 274.5 305.027344 274.339844 305.683594 274.207031 C 306.335938 274.078125 306.996094 273.980469 307.660156 273.914062 C 308.324219 273.847656 308.988281 273.816406 309.65625 273.816406 C 310.320312 273.816406 310.988281 273.847656 311.652344 273.914062 C 312.3125 273.980469 312.972656 274.078125 313.628906 274.207031 C 314.28125 274.339844 314.925781 274.5 315.566406 274.691406 C 316.203125 274.886719 316.832031 275.109375 317.445312 275.367188 C 318.0625 275.621094 318.664062 275.90625 319.253906 276.21875 C 319.839844 276.535156 320.410156 276.878906 320.964844 277.246094 C 321.519531 277.617188 322.054688 278.015625 322.570312 278.4375 C 323.085938 278.859375 323.582031 279.308594 324.050781 279.78125 C 324.523438 280.25 324.96875 280.746094 325.394531 281.261719 C 325.816406 281.777344 326.214844 282.3125 326.582031 282.863281 C 326.953125 283.417969 327.296875 283.992188 327.609375 284.578125 C 327.925781 285.167969 328.210938 285.769531 328.464844 286.386719 C 328.71875 287 328.945312 287.628906 329.136719 288.265625 C 329.332031 288.90625 329.492188 289.550781 329.625 290.203125 C 329.753906 290.859375 329.851562 291.515625 329.917969 292.179688 C 329.980469 292.84375 330.015625 293.511719 330.015625 294.175781 C 330.015625 294.84375 329.980469 295.507812 329.917969 296.171875 C 329.851562 296.835938 329.753906 297.496094 329.625 298.148438 C 329.492188 298.800781 329.332031 299.449219 329.136719 300.085938 C 328.945312 300.726562 328.71875 301.351562 328.464844 301.96875 C 328.210938 302.585938 327.925781 303.1875 327.609375 303.773438 C 327.296875 304.363281 326.953125 304.933594 326.582031 305.488281 C 326.214844 306.042969 325.816406 306.578125 325.394531 307.09375 C 324.96875 307.609375 324.523438 308.101562 324.050781 308.574219 C 323.582031 309.042969 323.085938 309.492188 322.570312 309.914062 C 322.054688 310.339844 321.519531 310.734375 320.964844 311.105469 C 320.410156 311.476562 319.839844 311.816406 319.253906 312.132812 C 318.664062 312.445312 318.0625 312.730469 317.445312 312.988281 C 316.832031 313.242188 316.203125 313.464844 315.566406 313.660156 C 314.925781 313.855469 314.28125 314.015625 313.628906 314.144531 C 312.972656 314.277344 312.3125 314.375 311.652344 314.4375 C 310.988281 314.503906 310.320312 314.535156 309.65625 314.535156 Z M 309.65625 314.535156 " fill-opacity="1" fill-rule="nonzero"/></g></svg>